<svg width="50" height="50" viewBox="0 0 50 50" fill="none" xmlns="http://www.w3.org/2000/svg">
<g clip-path="url(#clip0_146_10)">
<path d="M44.4573 49.4665H5.52813C2.48112 49.4665 -1.52588e-05 47.1421 -1.52588e-05 44.2877V7.80523C-1.52588e-05 4.95079 2.48112 2.62646 5.52813 2.62646H44.4573C47.5043 2.62646 49.9855 4.95079 49.9855 7.80523V44.2741C50 47.1421 47.5188 49.4665 44.4573 49.4665ZM5.52813 5.4945C4.16423 5.4945 3.06151 6.52753 3.06151 7.80523V44.2741C3.06151 45.5518 4.16423 46.5848 5.52813 46.5848H44.4573C45.8212 46.5848 46.9239 45.5518 46.9239 44.2741V7.80523C46.9239 6.52753 45.8212 5.4945 44.4573 5.4945H5.52813Z" fill="#333333"/>
<path d="M36.1579 10.3742C35.5049 10.3742 34.9826 9.88489 34.9826 9.27323V1.6342C34.9826 1.02254 35.5049 0.533203 36.1579 0.533203C36.8108 0.533203 37.3331 1.02254 37.3331 1.6342V9.25963C37.3331 9.8713 36.8108 10.3742 36.1579 10.3742ZM13.7115 10.3742C13.0586 10.3742 12.5363 9.88489 12.5363 9.27323V1.6342C12.5363 1.02254 13.0586 0.533203 13.7115 0.533203C14.3645 0.533203 14.8868 1.02254 14.8868 1.6342V9.25963C14.9013 9.8713 14.3645 10.3742 13.7115 10.3742ZM26.4074 35.0312C21.5322 35.0312 17.5711 31.3204 17.5711 26.7533C17.5711 22.1862 21.5322 18.4754 26.4074 18.4754C28.6129 18.4754 30.7168 19.2366 32.3418 20.623C32.545 20.7861 32.5595 21.0852 32.3709 21.2619C32.1967 21.4522 31.8775 21.4658 31.6889 21.2891C30.238 20.0521 28.3662 19.3725 26.4074 19.3725C22.0691 19.3725 18.5432 22.6755 18.5432 26.7397C18.5432 30.8039 22.0691 34.1069 26.4074 34.1069C28.3662 34.1069 30.238 33.4272 31.6889 32.1903C31.892 32.0272 32.1967 32.0408 32.3709 32.2175C32.545 32.4078 32.5305 32.6932 32.3418 32.8563C30.7168 34.27 28.6129 35.0312 26.4074 35.0312Z" fill="#333333"/>
</g>
<defs>
<clipPath id="clip0_146_10">
<rect width="50" height="50" fill="white"/>
</clipPath>
</defs>
</svg>
