<svg width="195" height="36" viewBox="0 0 195 36" fill="none" xmlns="http://www.w3.org/2000/svg">
<path d="M35.7822 25.8481C35.0938 26.9614 34.1636 28.0674 32.9917 29.166C31.8198 30.25 30.4795 31.2314 28.9707 32.1104C27.4766 32.9746 25.8433 33.6704 24.0708 34.1978C22.2983 34.7397 20.4673 35.0107 18.5776 35.0107C17.0981 35.0107 15.6187 34.8789 14.1392 34.6152C12.6743 34.3516 11.2607 33.9487 9.89844 33.4067C8.55078 32.8647 7.29102 32.1836 6.11914 31.3633C4.96191 30.5283 3.95117 29.5469 3.08691 28.4189C2.22266 27.291 1.5415 26.0093 1.04346 24.5737C0.560059 23.1382 0.318359 21.5415 0.318359 19.7837C0.318359 18.0698 0.567383 16.4438 1.06543 14.9058C1.57812 13.3677 2.28857 11.9468 3.19678 10.6431C4.10498 9.32471 5.18164 8.13818 6.42676 7.0835C7.67188 6.02881 9.03418 5.13525 10.5137 4.40283C11.9932 3.65576 13.5532 3.08447 15.1938 2.68896C16.8345 2.29346 18.5117 2.0957 20.2256 2.0957C22.1152 2.0957 23.8877 2.32275 25.543 2.77686C27.2129 3.21631 28.6704 3.84619 29.9155 4.6665C31.1606 5.47217 32.1421 6.44629 32.8599 7.58887C33.5923 8.7168 33.9585 9.97656 33.9585 11.3682C33.9585 12.6572 33.6582 13.8877 33.0576 15.0596C32.457 16.2168 31.6294 17.2349 30.5747 18.1138C29.5347 18.9927 28.3115 19.6885 26.9053 20.2012C25.5137 20.7139 24.0269 20.9702 22.4448 20.9702C21.1704 20.9702 20.0425 20.8164 19.061 20.5088C18.0796 20.1865 17.2593 19.7471 16.6001 19.1904C15.9409 18.6338 15.4429 17.9819 15.106 17.2349C14.769 16.4878 14.6006 15.6821 14.6006 14.8179C14.6006 14.1001 14.7104 13.4482 14.9302 12.8623C15.1646 12.2617 15.4136 11.749 15.6772 11.3242C15.9556 10.8994 16.2119 10.5698 16.4463 10.3354C16.6953 10.0864 16.8345 9.94727 16.8638 9.91797C16.937 9.84473 17.0176 9.80078 17.1055 9.78613C17.208 9.75684 17.3032 9.74219 17.3911 9.74219C17.6255 9.74219 17.8232 9.81543 17.9844 9.96191C18.1455 10.1084 18.2261 10.2988 18.2261 10.5332C18.2261 10.7969 18.1309 11.0166 17.9404 11.1924C17.9111 11.207 17.8086 11.3096 17.6328 11.5C17.457 11.6758 17.2666 11.9248 17.0615 12.2471C16.8564 12.5547 16.666 12.9282 16.4902 13.3677C16.3291 13.8071 16.2485 14.2905 16.2485 14.8179C16.2485 15.6528 16.4316 16.356 16.7979 16.9272C17.1787 17.4985 17.6694 17.9673 18.27 18.3335C18.8706 18.6851 19.5371 18.9414 20.2695 19.1025C21.002 19.249 21.7344 19.3223 22.4668 19.3223C23.8291 19.3223 25.1035 19.1025 26.29 18.6631C27.4912 18.2236 28.5386 17.6377 29.4321 16.9053C30.3257 16.1729 31.0288 15.3306 31.5415 14.3784C32.0542 13.4263 32.3105 12.4302 32.3105 11.3901C32.3105 10.2476 31.9883 9.20752 31.3438 8.27002C30.6992 7.31787 29.8276 6.51221 28.729 5.85303C27.6304 5.1792 26.3413 4.65918 24.8618 4.29297C23.397 3.92676 21.8296 3.74365 20.1597 3.74365C18.8999 3.74365 17.5742 3.89746 16.1826 4.20508C14.8057 4.49805 13.4434 4.94482 12.0957 5.54541C10.748 6.146 9.45898 6.89307 8.22852 7.78662C7.0127 8.68018 5.94336 9.72754 5.02051 10.9287C4.09766 12.1152 3.35791 13.4482 2.80127 14.9277C2.25928 16.4072 1.98828 18.0259 1.98828 19.7837C1.98828 21.3804 2.20801 22.8232 2.64746 24.1123C3.10156 25.4014 3.72412 26.5513 4.51514 27.562C5.30615 28.5581 6.229 29.4224 7.28369 30.1548C8.35303 30.8872 9.49561 31.4951 10.7114 31.9785C11.9419 32.4473 13.2236 32.7988 14.5566 33.0332C15.8896 33.2529 17.2153 33.3628 18.5337 33.3628C20.2915 33.3628 21.9834 33.1211 23.6094 32.6377C25.2354 32.1396 26.7368 31.4951 28.1138 30.7041C29.5054 29.8984 30.7358 28.9976 31.8052 28.0015C32.8745 27.0054 33.7241 26.002 34.354 24.9912C34.4272 24.8594 34.5298 24.7642 34.6616 24.7056C34.7935 24.6323 34.9326 24.5957 35.0791 24.5957C35.3281 24.5957 35.5259 24.6836 35.6724 24.8594C35.8188 25.0205 35.8921 25.2036 35.8921 25.4087C35.8921 25.4819 35.8848 25.5552 35.8701 25.6284C35.8555 25.7017 35.8262 25.7749 35.7822 25.8481ZM40.3745 24.9692C40.3159 25.3647 40.2427 25.7383 40.1548 26.0898C40.0669 26.4268 39.979 26.7271 39.8911 26.9907C39.8179 27.2397 39.752 27.4448 39.6934 27.606C39.6348 27.7671 39.5981 27.855 39.5835 27.8696C39.437 28.2065 39.1807 28.375 38.8145 28.375C38.6094 28.375 38.4189 28.3018 38.2432 28.1553C38.0674 27.9941 37.9795 27.7964 37.9795 27.562C37.9795 27.4741 37.9941 27.4082 38.0234 27.3643C38.0527 27.3203 38.0967 27.2324 38.1553 27.1006C38.2139 26.9688 38.2871 26.749 38.375 26.4414C38.4629 26.1338 38.5728 25.6577 38.7046 25.0132C38.4556 25.0132 38.1992 25.0059 37.9355 24.9912C37.6719 24.9766 37.4302 24.9253 37.2104 24.8374C36.9761 24.7495 36.7856 24.6104 36.6392 24.4199C36.4927 24.2295 36.4194 23.9658 36.4194 23.6289C36.4194 23.3799 36.4927 23.043 36.6392 22.6182C36.771 22.1934 36.9541 21.7759 37.1885 21.3657C37.4229 20.9556 37.6865 20.604 37.9795 20.311C38.2725 20.0034 38.5654 19.8496 38.8584 19.8496C39.1953 19.8496 39.4663 19.9741 39.6714 20.2231C39.8911 20.4722 40.0596 20.7798 40.1768 21.146C40.2939 21.4976 40.3745 21.8711 40.4185 22.2666C40.4771 22.6621 40.5063 23.0063 40.5063 23.2993C40.7554 23.2993 40.9971 23.2993 41.2314 23.2993C41.4805 23.2847 41.7148 23.2773 41.9346 23.2773C42.7695 23.2773 43.4067 23.4604 43.8462 23.8267C44.2856 24.1929 44.5054 24.7935 44.5054 25.6284C44.5054 25.9653 44.4834 26.3169 44.4395 26.6831C44.3955 27.0493 44.3442 27.4302 44.2856 27.8257C44.2271 28.2065 44.1758 28.5874 44.1318 28.9683C44.0879 29.3491 44.0659 29.7227 44.0659 30.0889C44.0659 30.6162 44.1392 31.0557 44.2856 31.4072C44.4321 31.7441 44.6152 32.0151 44.835 32.2202C45.0547 32.4253 45.2891 32.5718 45.5381 32.6597C45.7871 32.7329 46.0142 32.7695 46.2192 32.7695C46.8491 32.7695 47.4424 32.5645 47.999 32.1543C48.5557 31.7441 49.0684 31.2534 49.5371 30.6821C50.0059 30.0962 50.4233 29.481 50.7896 28.8364C51.1704 28.1919 51.4854 27.6279 51.7344 27.1445C51.8076 27.0127 51.9102 26.9102 52.042 26.8369C52.1738 26.7637 52.313 26.7271 52.4595 26.7271C52.7231 26.7271 52.9282 26.8149 53.0747 26.9907C53.2212 27.1519 53.2944 27.335 53.2944 27.54C53.2944 27.6865 53.2651 27.8184 53.2065 27.9355C52.8696 28.5361 52.4741 29.2173 52.02 29.979C51.5806 30.7261 51.0752 31.4292 50.5039 32.0884C49.9326 32.7476 49.2881 33.3042 48.5703 33.7583C47.8672 34.2124 47.0908 34.4395 46.2412 34.4395C45.7139 34.4395 45.2158 34.3369 44.7471 34.1318C44.2783 33.9414 43.8682 33.6631 43.5166 33.2969C43.1797 32.916 42.9087 32.4546 42.7036 31.9126C42.4985 31.356 42.396 30.7334 42.396 30.0449C42.396 29.3125 42.4692 28.5874 42.6157 27.8696C42.7622 27.1372 42.8354 26.4414 42.8354 25.7822C42.8354 25.5039 42.7695 25.2988 42.6377 25.167C42.5205 25.0205 42.2495 24.9473 41.8247 24.9473C41.6196 24.9473 41.3926 24.9473 41.1436 24.9473C40.9092 24.9473 40.6528 24.9546 40.3745 24.9692ZM38.9023 23.3433C38.9023 23.2407 38.895 23.1089 38.8804 22.9478C38.8804 22.772 38.8657 22.6035 38.8364 22.4424C38.8218 22.2812 38.7925 22.1421 38.7485 22.0249C38.7192 21.9077 38.6826 21.8491 38.6387 21.8491C38.5947 21.8491 38.5361 21.9077 38.4629 22.0249C38.4043 22.1274 38.3384 22.2593 38.2651 22.4204C38.1919 22.5669 38.126 22.728 38.0674 22.9038C38.0088 23.0796 37.9648 23.2261 37.9355 23.3433H38.9023ZM55.3159 16.7515C55.3159 17.3081 55.1182 17.7842 54.7227 18.1797C54.3418 18.5605 53.873 18.751 53.3164 18.751C52.7598 18.751 52.2837 18.5605 51.8882 18.1797C51.5073 17.7842 51.3169 17.3081 51.3169 16.7515C51.3169 16.4731 51.3682 16.2168 51.4707 15.9824C51.5732 15.7334 51.7124 15.521 51.8882 15.3452C52.0786 15.1548 52.291 15.0083 52.5254 14.9058C52.7744 14.8032 53.0381 14.752 53.3164 14.752C53.5947 14.752 53.8511 14.8032 54.0854 14.9058C54.3345 15.0083 54.5469 15.1548 54.7227 15.3452C54.9131 15.521 55.0596 15.7334 55.1621 15.9824C55.2646 16.2168 55.3159 16.4731 55.3159 16.7515ZM51.7563 29.6274C51.7563 27.5181 51.8882 25.416 52.1519 23.3213C52.1812 23.1162 52.269 22.9404 52.4155 22.7939C52.5767 22.6328 52.7817 22.5522 53.0308 22.5522C53.2505 22.5522 53.4336 22.6401 53.5801 22.8159C53.7266 22.9771 53.7998 23.1675 53.7998 23.3872C53.7998 23.4751 53.7778 23.7388 53.7339 24.1782C53.7046 24.6177 53.6606 25.145 53.6021 25.7603C53.5581 26.3608 53.5142 27.0054 53.4702 27.6938C53.4409 28.3677 53.4263 28.9902 53.4263 29.5615C53.4263 30.3379 53.4995 30.9678 53.646 31.4512C53.8071 31.9199 54.0049 32.2861 54.2393 32.5498C54.4883 32.8135 54.7446 32.9893 55.0083 33.0771C55.2866 33.165 55.5503 33.209 55.7993 33.209C56.2095 33.209 56.6343 33.0625 57.0737 32.7695C57.5132 32.4766 57.96 32.0664 58.4141 31.5391C58.8828 31.0117 59.3516 30.3818 59.8203 29.6494C60.2891 28.9023 60.7505 28.0747 61.2046 27.1665C61.2778 27.02 61.3804 26.9102 61.5122 26.8369C61.644 26.749 61.7905 26.7051 61.9517 26.7051C62.186 26.7051 62.3765 26.793 62.5229 26.9688C62.6841 27.1445 62.7646 27.335 62.7646 27.54C62.7646 27.6865 62.7354 27.811 62.6768 27.9136C62.501 28.2505 62.2812 28.6606 62.0176 29.144C61.7539 29.6274 61.4536 30.1255 61.1167 30.6382C60.7798 31.1509 60.4062 31.6636 59.9961 32.1763C59.6006 32.6743 59.1758 33.1284 58.7217 33.5386C58.2676 33.9341 57.7915 34.2563 57.2935 34.5054C56.7954 34.7544 56.29 34.8789 55.7773 34.8789C55.1182 34.8789 54.5396 34.7397 54.0415 34.4614C53.5435 34.1831 53.1187 33.8096 52.7671 33.3408C52.4302 32.8721 52.1738 32.3228 51.998 31.6929C51.8369 31.0483 51.7563 30.3599 51.7563 29.6274ZM54.0854 16.7515C54.0854 16.5464 54.0049 16.3706 53.8438 16.2241C53.6973 16.063 53.5215 15.9824 53.3164 15.9824C53.1113 15.9824 52.9355 16.063 52.7891 16.2241C52.6426 16.3706 52.5693 16.5464 52.5693 16.7515C52.5693 16.9565 52.6426 17.1323 52.7891 17.2788C52.9355 17.4253 53.1113 17.4985 53.3164 17.4985C53.5215 17.4985 53.6973 17.4253 53.8438 17.2788C54.0049 17.1323 54.0854 16.9565 54.0854 16.7515ZM63.6216 25.8701C63.5337 26.1045 63.4238 26.3682 63.292 26.6611C63.1748 26.9541 63.0356 27.2617 62.8745 27.584C62.7427 27.833 62.6035 28.0308 62.457 28.1772C62.3252 28.3091 62.1494 28.375 61.9297 28.375C61.6807 28.375 61.4829 28.3018 61.3364 28.1553C61.1899 27.9941 61.1167 27.811 61.1167 27.606C61.1167 27.5327 61.124 27.4741 61.1387 27.4302C61.1533 27.3716 61.1899 27.2837 61.2485 27.1665C61.6294 26.4341 61.9077 25.7969 62.0835 25.2549C62.2739 24.6982 62.4277 24.1196 62.5449 23.519C62.4424 23.1821 62.3691 22.8965 62.3252 22.6621C62.2812 22.4277 62.2593 22.186 62.2593 21.937C62.2593 21.4536 62.3618 21.0654 62.5669 20.7725C62.772 20.4648 63.0576 20.311 63.4238 20.311C63.7607 20.311 64.0244 20.4575 64.2148 20.7505C64.4199 21.0435 64.5225 21.4023 64.5225 21.8271C64.5225 22.0615 64.5005 22.2959 64.4565 22.5303C64.4126 22.7646 64.354 23.0576 64.2808 23.4092C64.6177 24.2441 64.9546 24.9839 65.2915 25.6284C65.6284 26.2729 65.9287 26.8662 66.1924 27.4082C66.4561 27.9355 66.6685 28.4336 66.8296 28.9023C67.0054 29.3711 67.0933 29.8398 67.0933 30.3086C67.0933 30.9238 66.9688 31.5098 66.7197 32.0664C66.4707 32.623 66.0605 33.0918 65.4893 33.4727C65.5625 33.4873 65.6357 33.4946 65.709 33.4946C65.7822 33.4946 65.8555 33.4946 65.9287 33.4946C66.7637 33.4946 67.5327 33.3042 68.2358 32.9233C68.939 32.5425 69.5688 32.0518 70.1255 31.4512C70.6968 30.8359 71.2021 30.1621 71.6416 29.4297C72.0811 28.6826 72.4619 27.9429 72.7842 27.2104C72.9307 26.8735 73.1357 26.7051 73.3994 26.7051C73.6484 26.7051 73.8389 26.793 73.9707 26.9688C74.1172 27.1445 74.1904 27.335 74.1904 27.54C74.1904 27.6572 74.1685 27.7671 74.1245 27.8696C73.9634 28.2651 73.751 28.7192 73.4873 29.2319C73.2383 29.73 72.9307 30.25 72.5645 30.792C72.2129 31.3193 71.8027 31.8394 71.334 32.3521C70.8652 32.8647 70.3379 33.3262 69.752 33.7363C69.1807 34.1318 68.5508 34.4468 67.8623 34.6812C67.1738 34.9302 66.4194 35.0547 65.5991 35.0547C64.6177 35.0547 63.7021 34.8789 62.8525 34.5273C62.0176 34.1904 61.3364 33.6265 60.8091 32.8354C60.7212 32.7036 60.6772 32.5645 60.6772 32.418C60.6772 32.1982 60.7578 32.0078 60.9189 31.8467C61.0947 31.6709 61.2925 31.583 61.5122 31.583C61.7466 31.583 61.9443 31.6636 62.1055 31.8247C62.1201 31.854 62.1714 31.9053 62.2593 31.9785C62.3472 32.0371 62.4497 32.1104 62.5669 32.1982C62.6987 32.2715 62.8452 32.3374 63.0063 32.396C63.1821 32.4546 63.3579 32.4839 63.5337 32.4839C63.8853 32.4839 64.1782 32.4106 64.4126 32.2642C64.6616 32.1177 64.8594 31.9419 65.0059 31.7368C65.1523 31.5171 65.2549 31.29 65.3135 31.0557C65.3867 30.8066 65.4233 30.5942 65.4233 30.4185C65.4233 30.0522 65.3647 29.686 65.2476 29.3198C65.1304 28.9536 64.9766 28.5874 64.7861 28.2212C64.6104 27.855 64.4126 27.4814 64.1929 27.1006C63.9878 26.7051 63.7974 26.2949 63.6216 25.8701ZM90.4062 12.0054C90.4062 12.2397 90.3257 12.4302 90.1646 12.5767C90.0034 12.7085 89.8057 12.7744 89.5713 12.7744H78.4312V13.0161C78.4312 13.9097 78.3652 14.8618 78.2334 15.8726C78.1016 16.8833 77.9185 17.894 77.6841 18.9048C77.4644 19.9009 77.208 20.875 76.915 21.8271C76.6367 22.7793 76.3438 23.6582 76.0361 24.4639C75.7432 25.2695 75.4502 25.9727 75.1572 26.5732C74.8643 27.1592 74.6006 27.5986 74.3662 27.8916C74.5566 28.5654 74.7837 29.1953 75.0474 29.7812C75.311 30.3525 75.604 30.8579 75.9263 31.2974C76.2632 31.7222 76.6221 32.0591 77.0029 32.3081C77.3838 32.5571 77.7939 32.6816 78.2334 32.6816C78.7461 32.6816 79.2515 32.4692 79.7495 32.0444C80.2622 31.605 80.731 31.0923 81.1558 30.5063C81.5952 29.9058 81.9761 29.3052 82.2983 28.7046C82.6353 28.0894 82.877 27.5986 83.0234 27.2324C83.1699 26.8809 83.4263 26.7051 83.7925 26.7051C84.0415 26.7051 84.2393 26.793 84.3857 26.9688C84.5469 27.1445 84.6274 27.335 84.6274 27.54C84.6274 27.6426 84.6055 27.7451 84.5615 27.8477C84.5176 27.9502 84.4077 28.1846 84.2319 28.5508C84.0708 28.917 83.8511 29.3418 83.5728 29.8252C83.3091 30.3086 82.9941 30.8213 82.6279 31.3633C82.2764 31.8906 81.8735 32.374 81.4194 32.8135C80.98 33.2529 80.5039 33.6191 79.9912 33.9121C79.4785 34.2051 78.9365 34.3516 78.3652 34.3516C77.3545 34.3516 76.4463 34.022 75.6406 33.3628C74.835 32.7036 74.1465 31.7808 73.5752 30.5942C73.0186 29.4077 72.5938 28.0015 72.3008 26.3755C72.0078 24.7495 71.8613 22.9697 71.8613 21.0361C71.8613 20.5527 71.8687 19.9888 71.8833 19.3442C71.8979 18.6851 71.9272 17.9966 71.9712 17.2788C72.0151 16.5464 72.0811 15.7993 72.1689 15.0376C72.2568 14.2612 72.374 13.5068 72.5205 12.7744H64.6323C64.3979 12.7744 64.2002 12.7085 64.0391 12.5767C63.8779 12.4302 63.7974 12.2397 63.7974 12.0054C63.7974 11.771 63.8779 11.5879 64.0391 11.4561C64.2002 11.3096 64.3979 11.2363 64.6323 11.2363H72.894C73.0405 10.709 73.209 10.2256 73.3994 9.78613C73.6045 9.34668 73.8315 8.96582 74.0806 8.64355C74.3442 8.32129 74.6299 8.07227 74.9375 7.89648C75.2598 7.70605 75.6113 7.61084 75.9922 7.61084C76.3584 7.61084 76.6733 7.70605 76.937 7.89648C77.2153 8.07227 77.4497 8.32129 77.6401 8.64355C77.8306 8.96582 77.9771 9.34668 78.0796 9.78613C78.1968 10.2256 78.2847 10.709 78.3433 11.2363H89.5713C89.8057 11.2363 90.0034 11.3096 90.1646 11.4561C90.3257 11.5879 90.4062 11.771 90.4062 12.0054ZM73.8608 25.6943C74.3003 24.7275 74.6958 23.6875 75.0474 22.5742C75.4136 21.4463 75.7212 20.311 75.9702 19.1685C76.2339 18.0259 76.4316 16.9053 76.5635 15.8066C76.71 14.708 76.7832 13.6973 76.7832 12.7744H74.1904C73.9854 13.6826 73.8169 14.8105 73.6851 16.1582C73.5679 17.4912 73.5093 19.1172 73.5093 21.0361C73.5093 22.1055 73.5386 23.0063 73.5972 23.7388C73.6558 24.4565 73.7437 25.1084 73.8608 25.6943ZM75.9043 9.25879C75.7725 9.25879 75.582 9.40527 75.333 9.69824C75.084 9.97656 74.835 10.4893 74.5859 11.2363H76.6953C76.6221 10.6211 76.5122 10.1377 76.3657 9.78613C76.2339 9.43457 76.0801 9.25879 75.9043 9.25879ZM74.2124 27.2764V27.2983V27.2764ZM86.6929 16.7515C86.6929 17.3081 86.4951 17.7842 86.0996 18.1797C85.7188 18.5605 85.25 18.751 84.6934 18.751C84.1367 18.751 83.6606 18.5605 83.2651 18.1797C82.8843 17.7842 82.6938 17.3081 82.6938 16.7515C82.6938 16.4731 82.7451 16.2168 82.8477 15.9824C82.9502 15.7334 83.0894 15.521 83.2651 15.3452C83.4556 15.1548 83.668 15.0083 83.9023 14.9058C84.1514 14.8032 84.415 14.752 84.6934 14.752C84.9717 14.752 85.228 14.8032 85.4624 14.9058C85.7114 15.0083 85.9238 15.1548 86.0996 15.3452C86.29 15.521 86.4365 15.7334 86.5391 15.9824C86.6416 16.2168 86.6929 16.4731 86.6929 16.7515ZM83.1333 29.6274C83.1333 27.5181 83.2651 25.416 83.5288 23.3213C83.5581 23.1162 83.646 22.9404 83.7925 22.7939C83.9536 22.6328 84.1587 22.5522 84.4077 22.5522C84.6274 22.5522 84.8105 22.6401 84.957 22.8159C85.1035 22.9771 85.1768 23.1675 85.1768 23.3872C85.1768 23.4751 85.1548 23.7388 85.1108 24.1782C85.0815 24.6177 85.0376 25.145 84.979 25.7603C84.9351 26.3608 84.8911 27.0054 84.8472 27.6938C84.8179 28.3677 84.8032 28.9902 84.8032 29.5615C84.8032 30.3379 84.8765 30.9678 85.0229 31.4512C85.1841 31.9199 85.3818 32.2861 85.6162 32.5498C85.8652 32.8135 86.1216 32.9893 86.3853 33.0771C86.6636 33.165 86.9272 33.209 87.1763 33.209C87.5864 33.209 88.0112 33.0625 88.4507 32.7695C88.8901 32.4766 89.3369 32.0664 89.791 31.5391C90.2598 31.0117 90.7285 30.3818 91.1973 29.6494C91.666 28.9023 92.1274 28.0747 92.5815 27.1665C92.6548 27.02 92.7573 26.9102 92.8892 26.8369C93.021 26.749 93.1675 26.7051 93.3286 26.7051C93.563 26.7051 93.7534 26.793 93.8999 26.9688C94.061 27.1445 94.1416 27.335 94.1416 27.54C94.1416 27.6865 94.1123 27.811 94.0537 27.9136C93.8779 28.2505 93.6582 28.6606 93.3945 29.144C93.1309 29.6274 92.8306 30.1255 92.4937 30.6382C92.1567 31.1509 91.7832 31.6636 91.373 32.1763C90.9775 32.6743 90.5527 33.1284 90.0986 33.5386C89.6445 33.9341 89.1685 34.2563 88.6704 34.5054C88.1724 34.7544 87.667 34.8789 87.1543 34.8789C86.4951 34.8789 85.9165 34.7397 85.4185 34.4614C84.9204 34.1831 84.4956 33.8096 84.144 33.3408C83.8071 32.8721 83.5508 32.3228 83.375 31.6929C83.2139 31.0483 83.1333 30.3599 83.1333 29.6274ZM85.4624 16.7515C85.4624 16.5464 85.3818 16.3706 85.2207 16.2241C85.0742 16.063 84.8984 15.9824 84.6934 15.9824C84.4883 15.9824 84.3125 16.063 84.166 16.2241C84.0195 16.3706 83.9463 16.5464 83.9463 16.7515C83.9463 16.9565 84.0195 17.1323 84.166 17.2788C84.3125 17.4253 84.4883 17.4985 84.6934 17.4985C84.8984 17.4985 85.0742 17.4253 85.2207 17.2788C85.3818 17.1323 85.4624 16.9565 85.4624 16.7515ZM109.544 27.8696C109.486 27.9868 109.361 28.2358 109.171 28.6167C108.995 28.9829 108.761 29.4077 108.468 29.8911C108.189 30.3745 107.86 30.8799 107.479 31.4072C107.098 31.9346 106.673 32.418 106.205 32.8574C105.736 33.2969 105.23 33.6631 104.688 33.9561C104.146 34.2344 103.575 34.3735 102.975 34.3735C102.125 34.3735 101.407 34.1025 100.821 33.5605C100.25 33.0186 99.8325 32.3374 99.5688 31.5171C99.0708 32.3521 98.4775 33.0186 97.7891 33.5166C97.1006 34 96.4121 34.2417 95.7236 34.2417C95.1816 34.2417 94.6909 34.1465 94.2515 33.9561C93.812 33.751 93.4385 33.4727 93.1309 33.1211C92.8232 32.7549 92.5815 32.3301 92.4058 31.8467C92.2446 31.3633 92.1641 30.8359 92.1641 30.2646C92.1641 29.1221 92.3545 28.1187 92.7354 27.2544C93.1309 26.3755 93.6289 25.6431 94.2295 25.0571C94.8301 24.4712 95.4893 24.0317 96.207 23.7388C96.9395 23.4458 97.6426 23.2993 98.3164 23.2993C98.7705 23.2993 99.188 23.3652 99.5688 23.4971C99.9497 23.6143 100.272 23.7461 100.536 23.8926C100.814 24.0391 101.026 24.1782 101.173 24.3101C101.319 24.4272 101.4 24.4932 101.415 24.5078C101.576 24.6982 101.656 24.896 101.656 25.1011C101.656 25.3208 101.576 25.5186 101.415 25.6943C101.253 25.8555 101.063 25.936 100.843 25.936C100.609 25.936 100.411 25.8555 100.25 25.6943C100.221 25.665 100.155 25.6138 100.052 25.5405C99.9497 25.4526 99.8105 25.3647 99.6348 25.2769C99.459 25.189 99.2466 25.1157 98.9976 25.0571C98.7632 24.9839 98.4922 24.9473 98.1846 24.9473C97.7305 24.9473 97.2471 25.0498 96.7344 25.2549C96.2217 25.46 95.7529 25.7822 95.3281 26.2217C94.9033 26.6465 94.5444 27.1885 94.2515 27.8477C93.9731 28.4922 93.834 29.2612 93.834 30.1548C93.834 30.4331 93.8633 30.7188 93.9219 31.0117C93.9805 31.29 94.083 31.5464 94.2295 31.7808C94.376 32.0151 94.5737 32.2056 94.8228 32.3521C95.0718 32.4985 95.3794 32.5718 95.7456 32.5718C96.0093 32.5718 96.3096 32.4839 96.6465 32.3081C96.998 32.1323 97.3276 31.8613 97.6353 31.4951C97.9575 31.1289 98.2432 30.6675 98.4922 30.1108C98.7559 29.5542 98.939 28.895 99.0415 28.1333C99.0708 27.9282 99.166 27.7598 99.3271 27.6279C99.4883 27.4814 99.6787 27.4082 99.8984 27.4082C100.104 27.4082 100.279 27.4888 100.426 27.6499C100.587 27.811 100.675 27.9941 100.689 28.1992C100.704 28.4775 100.733 28.873 100.777 29.3857C100.821 29.8838 100.917 30.3818 101.063 30.8799C101.224 31.3779 101.458 31.8101 101.766 32.1763C102.074 32.5425 102.499 32.7256 103.041 32.7256C103.392 32.7256 103.736 32.6304 104.073 32.4399C104.425 32.2495 104.762 32.0005 105.084 31.6929C105.421 31.3706 105.736 31.0117 106.029 30.6162C106.336 30.2061 106.615 29.7959 106.864 29.3857C107.113 28.9756 107.333 28.5801 107.523 28.1992C107.713 27.8184 107.875 27.4888 108.006 27.2104C108.08 27.0493 108.182 26.9248 108.314 26.8369C108.46 26.749 108.614 26.7051 108.775 26.7051C109.024 26.7051 109.222 26.8003 109.369 26.9907C109.53 27.1665 109.61 27.3569 109.61 27.562C109.61 27.6646 109.588 27.7671 109.544 27.8696ZM112.906 32.0225C113.141 31.5391 113.412 31.0117 113.719 30.4404C114.027 29.8545 114.356 29.2686 114.708 28.6826C115.06 28.082 115.426 27.4888 115.807 26.9028C116.202 26.3169 116.612 25.7603 117.037 25.2329C117.462 24.7202 117.887 24.354 118.312 24.1343C118.751 23.8999 119.161 23.7827 119.542 23.7827C120.304 23.7827 120.868 24.061 121.234 24.6177C121.6 25.1743 121.783 25.8628 121.783 26.6831C121.783 26.8735 121.769 27.1079 121.739 27.3862C121.725 27.6499 121.703 27.9355 121.673 28.2432C121.659 28.5508 121.637 28.8657 121.607 29.188C121.593 29.4956 121.585 29.7886 121.585 30.0669C121.585 30.4185 121.6 30.7554 121.629 31.0776C121.673 31.3999 121.747 31.6855 121.849 31.9346C121.952 32.1689 122.098 32.3594 122.289 32.5059C122.479 32.6377 122.728 32.7036 123.036 32.7036C123.592 32.7036 124.134 32.4912 124.662 32.0664C125.189 31.627 125.672 31.1143 126.112 30.5283C126.566 29.9277 126.954 29.3198 127.276 28.7046C127.613 28.0894 127.862 27.5913 128.023 27.2104C128.097 27.0493 128.199 26.9248 128.331 26.8369C128.478 26.749 128.631 26.7051 128.792 26.7051C129.042 26.7051 129.239 26.8003 129.386 26.9907C129.547 27.1665 129.627 27.3569 129.627 27.562C129.627 27.6646 129.605 27.7671 129.562 27.8696C129.503 27.9868 129.386 28.2285 129.21 28.5947C129.034 28.9609 128.8 29.3857 128.507 29.8691C128.229 30.3379 127.899 30.8433 127.518 31.3853C127.137 31.9126 126.712 32.396 126.244 32.8354C125.79 33.2749 125.292 33.6411 124.75 33.9341C124.222 34.2271 123.666 34.3735 123.08 34.3735C122.42 34.3735 121.886 34.249 121.476 34C121.065 33.7363 120.743 33.3994 120.509 32.9893C120.274 32.5645 120.113 32.103 120.025 31.605C119.952 31.0923 119.916 30.5796 119.916 30.0669C119.916 29.8472 119.923 29.5981 119.938 29.3198C119.967 29.0415 119.996 28.7485 120.025 28.4409C120.069 28.1333 120.099 27.8257 120.113 27.5181C120.143 27.2104 120.157 26.9175 120.157 26.6392C120.157 26.1704 120.084 25.8555 119.938 25.6943C119.791 25.5186 119.659 25.4307 119.542 25.4307C119.308 25.4307 119.037 25.5698 118.729 25.8481C118.436 26.1118 118.121 26.4634 117.784 26.9028C117.462 27.3423 117.125 27.8403 116.773 28.397C116.437 28.939 116.114 29.481 115.807 30.0229C115.514 30.5649 115.235 31.085 114.972 31.583C114.723 32.0664 114.525 32.4692 114.378 32.7915C114.085 33.4067 113.792 33.8169 113.5 34.022C113.207 34.2417 112.906 34.3516 112.599 34.3516C112.174 34.3516 111.83 34.2271 111.566 33.978C111.317 33.7144 111.192 33.3481 111.192 32.8794C111.192 32.7769 111.207 32.5791 111.236 32.2861C111.266 31.9785 111.302 31.6196 111.346 31.2095C111.39 30.7847 111.434 30.3306 111.478 29.8472C111.522 29.3638 111.566 28.8877 111.61 28.4189C111.654 27.9355 111.69 27.4888 111.72 27.0786C111.749 26.6685 111.764 26.3242 111.764 26.0459C111.764 25.6797 111.749 25.3281 111.72 24.9912C111.69 24.6543 111.632 24.4492 111.544 24.376C111.412 24.4199 111.178 24.6982 110.841 25.2109C110.504 25.709 110.072 26.5952 109.544 27.8696C109.471 28.0308 109.361 28.1553 109.215 28.2432C109.068 28.3311 108.915 28.375 108.753 28.375C108.504 28.375 108.307 28.2944 108.16 28.1333C108.014 27.9575 107.94 27.7598 107.94 27.54C107.94 27.4375 107.962 27.3276 108.006 27.2104C108.666 25.6431 109.281 24.4932 109.852 23.7607C110.438 23.0137 111.017 22.6401 111.588 22.6401C111.925 22.6401 112.21 22.728 112.445 22.9038C112.679 23.0649 112.862 23.2847 112.994 23.563C113.141 23.8413 113.243 24.1489 113.302 24.4858C113.375 24.8228 113.412 25.167 113.412 25.5186C113.412 25.7822 113.39 26.1924 113.346 26.749C113.316 27.3057 113.272 27.9062 113.214 28.5508C113.155 29.1807 113.097 29.8105 113.038 30.4404C112.994 31.0703 112.95 31.5977 112.906 32.0225ZM178.385 18.729C179.645 19.0806 180.714 19.4834 181.593 19.9375C182.486 20.3916 183.233 20.8677 183.834 21.3657C184.449 21.8491 184.933 22.3472 185.284 22.8599C185.636 23.3726 185.907 23.8633 186.097 24.332C186.288 24.8008 186.405 25.2402 186.449 25.6504C186.507 26.0459 186.537 26.3828 186.537 26.6611C186.537 27.6865 186.339 28.6021 185.943 29.4077C185.562 30.2134 185.042 30.9238 184.383 31.5391C183.724 32.1543 182.955 32.6743 182.076 33.0991C181.212 33.5239 180.304 33.8682 179.352 34.1318C178.399 34.4102 177.425 34.6079 176.429 34.7251C175.433 34.8569 174.488 34.9229 173.595 34.9229C172.145 34.9229 170.643 34.7764 169.09 34.4834C167.552 34.1904 165.992 33.7144 164.41 33.0552C164.059 32.9087 163.883 32.6523 163.883 32.2861C163.883 32.0371 163.971 31.8394 164.146 31.6929C164.322 31.5317 164.513 31.4512 164.718 31.4512C164.82 31.4512 164.93 31.4731 165.047 31.5171C166.41 32.0884 167.809 32.5205 169.244 32.8135C170.68 33.1064 172.123 33.2529 173.573 33.2529C175.55 33.2529 177.25 33.0625 178.67 32.6816C180.091 32.3008 181.256 31.8027 182.164 31.1875C183.087 30.5576 183.768 29.8545 184.208 29.0781C184.647 28.2871 184.867 27.4888 184.867 26.6831C184.867 25.7896 184.618 24.9619 184.12 24.2002C183.636 23.4385 182.94 22.7573 182.032 22.1567C181.139 21.5562 180.062 21.0435 178.802 20.6187C177.542 20.1938 176.144 19.8789 174.605 19.6738C173.595 19.8496 172.613 19.9741 171.661 20.0474C170.709 20.1206 169.83 20.1572 169.024 20.1572H168.519C168.417 20.1572 168.321 20.1499 168.233 20.1353C167.179 22.6694 165.919 24.8594 164.454 26.7051C163.004 28.5508 161.451 30.0815 159.796 31.2974C158.155 32.4985 156.463 33.3921 154.72 33.978C152.992 34.5493 151.329 34.835 149.732 34.835C148.077 34.835 146.554 34.6006 145.162 34.1318C143.785 33.6777 142.599 33.0259 141.603 32.1763C140.606 31.3267 139.83 30.3013 139.273 29.1001C138.717 27.8843 138.438 26.5293 138.438 25.0352C138.438 23.4824 138.739 21.8784 139.339 20.2231C139.955 18.5532 140.863 16.8613 142.064 15.1475C143.207 13.5361 144.474 12.0933 145.865 10.8188C147.257 9.52979 148.714 8.40186 150.238 7.43506C151.776 6.46826 153.358 5.64062 154.984 4.95215C156.61 4.26367 158.221 3.69971 159.818 3.26025C161.429 2.8208 162.997 2.50586 164.52 2.31543C166.058 2.11035 167.501 2.00781 168.849 2.00781C169.947 2.00781 170.995 2.04443 171.991 2.11768C172.987 2.19092 173.939 2.30078 174.847 2.44727C175.375 1.86133 175.799 1.44385 176.122 1.19482C176.444 0.931152 176.627 0.784668 176.671 0.755371C176.847 0.66748 177 0.623535 177.132 0.623535C177.337 0.623535 177.521 0.682129 177.682 0.799316C177.843 0.916504 177.923 1.08496 177.923 1.30469C177.923 1.59766 177.821 1.84668 177.616 2.05176C177.411 2.24219 177.132 2.50586 176.781 2.84277C179.461 3.50195 181.512 4.49805 182.933 5.83105C184.354 7.14941 185.064 8.78271 185.064 10.731C185.064 11.8003 184.889 12.7598 184.537 13.6094C184.186 14.459 183.702 15.2061 183.087 15.8506C182.486 16.4951 181.776 17.0591 180.956 17.5425C180.15 18.0112 179.293 18.4067 178.385 18.729ZM174.627 18.0039C175.272 17.8867 175.931 17.7329 176.605 17.5425C177.293 17.3521 177.96 17.125 178.604 16.8613C179.264 16.583 179.886 16.2607 180.472 15.8945C181.058 15.5137 181.563 15.0742 181.988 14.5762C182.428 14.0635 182.772 13.4922 183.021 12.8623C183.285 12.2324 183.417 11.5146 183.417 10.709C183.417 9.06836 182.735 7.71338 181.373 6.64404C180.011 5.57471 178.055 4.78369 175.506 4.271C174.774 5.1792 174.085 6.18262 173.441 7.28125C172.796 8.37988 172.203 9.52246 171.661 10.709C171.119 11.8809 170.628 13.0747 170.189 14.2905C169.764 15.4917 169.413 16.6562 169.134 17.7842C169.427 17.7695 169.698 17.7622 169.947 17.7622C170.196 17.7622 170.409 17.7622 170.584 17.7622C171.156 17.7622 171.778 17.7842 172.452 17.8281C173.126 17.8574 173.851 17.916 174.627 18.0039ZM173.639 3.96338C172.892 3.86084 172.123 3.7876 171.332 3.74365C170.541 3.69971 169.713 3.67773 168.849 3.67773C167.56 3.67773 166.19 3.77295 164.74 3.96338C163.29 4.15381 161.803 4.4541 160.279 4.86426C158.756 5.27441 157.218 5.80908 155.665 6.46826C154.127 7.11279 152.625 7.89648 151.161 8.81934C149.71 9.72754 148.326 10.7896 147.008 12.0054C145.689 13.2212 144.488 14.5908 143.404 16.1143C142.306 17.667 141.478 19.1978 140.921 20.7065C140.365 22.2153 140.086 23.6509 140.086 25.0132C140.086 26.2876 140.313 27.4302 140.768 28.4409C141.236 29.4517 141.896 30.3086 142.745 31.0117C143.595 31.7002 144.613 32.2349 145.799 32.6157C146.986 32.9819 148.297 33.165 149.732 33.165C151.168 33.165 152.662 32.9087 154.215 32.396C155.768 31.8687 157.284 31.0703 158.763 30.001C160.243 28.917 161.649 27.5547 162.982 25.9141C164.315 24.2588 165.479 22.2959 166.476 20.0254C166.212 20.0254 165.941 19.9521 165.663 19.8057C165.384 19.6445 165.245 19.3955 165.245 19.0586C165.245 18.707 165.414 18.458 165.75 18.3115C166.087 18.1504 166.615 18.0186 167.333 17.916C167.728 16.7148 168.131 15.5137 168.541 14.3125C168.951 13.1113 169.405 11.9248 169.903 10.7529C170.401 9.58105 170.951 8.43115 171.551 7.30322C172.152 6.16064 172.848 5.04736 173.639 3.96338ZM194.205 33.3628C194.205 33.6997 194.088 33.978 193.854 34.1978C193.634 34.4321 193.355 34.5493 193.019 34.5493C192.682 34.5493 192.396 34.4321 192.162 34.1978C191.942 33.978 191.832 33.6997 191.832 33.3628C191.832 33.0405 191.942 32.7695 192.162 32.5498C192.396 32.3154 192.682 32.1982 193.019 32.1982C193.355 32.1982 193.634 32.3154 193.854 32.5498C194.088 32.7695 194.205 33.0405 194.205 33.3628Z" fill="#4169E1"/>
</svg>
