<svg id="e8mWo0R92tu1" xmlns="http://www.w3.org/2000/svg" xmlns:xlink="http://www.w3.org/1999/xlink"
  viewBox="0 0 1200 300" shape-rendering="geometricPrecision" text-rendering="geometricPrecision"
  width="1200" height="300">
  <path
    d="M153.753549,95.554898c-38.1328,44.512074,17.892155,67.379402,57.90998,47.942173c36.587725-26.297428,40.017825-59.455054-10.183769-82.830184C108.760551,30.303795,29.546629,129.339157,75.602925,194.94856c78.892283,75.462184,154.354467,11.433664,175.454534-14.009848"
    transform="translate(.000002 0.000002)" fill="none" stroke="#4169e1" stroke-width="7"
    stroke-linecap="round" stroke-linejoin="round" stroke-dasharray="669.83987" class="svg-elem-1"></path>
  <path
    d="M271.34347,192.137834c0,0,10.94304-35.833092,0-38.837064-4.076819,1.931125-10.299332,12.659595-8.368207,17.594692c5.793374,10.728471,30.897996-2.574833,34.116537,4.291389c1.931125,20.169525-1.741914,26.867789-1.072528,37.323544c4.291388,11.586748,1.676821,15.533375,16.551259,15.251698s29.580846-25.324927,31.215588-27.543166c4.158633-10.226787,3.392514-35.001098,6.733466-33.185714s-12.496567,61.492525,14.271592,61.498261c18.896769-1.474109,41.321093-38.866575,45.967305-61.82433c1.035737-5.117757,1.100404-11.293431-3.006372-11.478878s-3.826293,4.646213-2.45976,10.658958c12.84541,21.044609,12.858264,26.602887,18.368948,38.004125c4.042194,27.042847-19.735481,18.570343-27.388066,14.470743c44.977595,37.725103,73.017448-35.002261,73.8307-35.791027c25.295873-54.939474,17.390913-96.835763,7.114465-96.835763-15.019425,2.766736-32.410337,58.101458-5.928721,125.688868c6.059496,12.394425,15.414673,12.647936,20.552897,14.228928c32.015089-14.228928,26.876865-43.872529,32.410337-56.125217c2.371488,15.019424-13.438432,54.148977,15.089681,59.49531c20.087392-6.927325,29.573345-24.318237,32.133694-29.722372c10.482835-32.934923,39.731188-30.563435,45.905277-18.36211"
    transform="translate(.000007 0.000006)" fill="none" stroke="#4169e1" stroke-width="7"
    stroke-linecap="round" stroke-linejoin="round" stroke-dasharray="1105.887748" class="svg-elem-2"></path>
  <path
    d="M570.93614,199.652281c.783851,14.109354,7.446604,24.691373,14.109358,24.299451c21.164036,1.175775,22.731747-27.826788,25.475231-28.218718s-2.743489,29.78642,17.24477,30.17835c28.610643-5.878903,35.273395-56.04551,46.639267-56.829361c11.365873.783851,0,52.518165,5.486973,55.261651s27.434864-56.437434,42.720002-47.423121c12.149725,4.703119-5.095046,42.720002,13.325505,49.382755c24.691378-3.52734,35.273396-34.097617,35.273396-34.097617"
    transform="translate(.000002 0.000004)" fill="none" stroke="#4169e1" stroke-width="7"
    stroke-linecap="round" stroke-linejoin="round" stroke-dasharray="418.446626" class="svg-elem-3"></path>
  <path
    d="M1038.672082,46.85369c-29.096227,22.700543-43.480353,77.240351-58.561748,117.123488-43.702797,71.672581-98.33129,70.798529-132.856498,54.191466-61.183913-57.250661,39.769544-135.478665,62.495-144.219223c52.443352-25.347623,108.819958-23.162483,134.167579-12.673812c63.369054,22.725454,23.162482,67.739333,12.236783,72.54664-15.601897,4.326577-28.808911,10.149772-51.97139,13.645996-11.799757-.437028-26.256616,1.212955-26.256614-2.720297s17.079025-3.435399,26.256614-3.872427c71.321288,4.794708,83.308059,28.768251,81.689293,52.819558-8.303533,39.769544-81.724229,40.6436-114.938353,24.910593"
    transform="translate(.000002 0.000003)" fill="none" stroke="#4169e1" stroke-width="7"
    stroke-linecap="round" stroke-linejoin="round" stroke-dasharray="1060.590332" class="svg-elem-4"></path>
  <path
    d="M343.902939,133.14381c-.343554-3.950865,2.061321-9.104167,7.729953-9.104167s7.981263,4.812138,8.073507,8.073507-2.233098,8.073506-7.558177,8.073506-7.901729-3.091981-8.245283-7.042846Z"
    transform="translate(-.171776 0)" fill="none" stroke="#4169e1" stroke-width="7"
    stroke-linecap="round" stroke-linejoin="round" stroke-dasharray="50.630786" class="svg-elem-5"></path>
  <path
    d="M343.815242,132.648972c-.343554-3.950865,2.149018-8.609329,7.81765-8.609329s7.981263,4.812138,8.073507,8.073507-2.233098,8.073506-7.558177,8.073506-7.989426-3.586819-8.33298-7.537684Z"
    transform="translate(174.288047 0.12416)" fill="none" stroke="#4169e1" stroke-width="7"
    stroke-linecap="round" stroke-linejoin="round" stroke-dasharray="50.699889" class="svg-elem-6"></path>
  <path d="M413.502833,105.866262h141.261066" transform="translate(-2.305136 0.288142)" fill="none"
    stroke="#4169e1" stroke-width="7" stroke-linecap="round" stroke-linejoin="round"
    stroke-dasharray="141.261066" class="svg-elem-7"></path>
  <path d="" fill="none" stroke="#4169e1" stroke-width="2.4" stroke-dasharray="0" class="svg-elem-8"></path>
  <ellipse rx="6.340115" ry="6.658087"
    transform="matrix(1.104081 0 0 1.051353 1127.57075 224.83974)" fill="#4169e1" stroke="#4169e1"
    stroke-dasharray="40.85" class="svg-elem-9"></ellipse>
</svg>