<svg width="36" height="35" viewBox="0 0 36 35" fill="none" xmlns="http://www.w3.org/2000/svg">
<path d="M14.893 2.91658C15.7836 0.137091 19.7163 0.137094 20.6069 2.91658L22.6169 9.18996C23.0149 10.432 24.1697 11.2746 25.4739 11.2746H32.0667C34.9627 11.2746 36.1778 14.972 33.8462 16.6898L28.4406 20.6725C27.4039 21.4364 26.9703 22.7768 27.3632 24.0032L29.4109 30.394C30.2988 33.1653 27.1173 35.4508 24.7744 33.7246L19.5295 29.8602C18.4712 29.0806 17.0287 29.0806 15.9705 29.8602L10.7255 33.7246C8.38265 35.4508 5.20114 33.1653 6.0891 30.394L8.13676 24.0032C8.5297 22.7768 8.0961 21.4364 7.05931 20.6725L1.65372 16.6898C-0.677796 14.972 0.537211 11.2746 3.43321 11.2746H10.0261C11.3303 11.2746 12.4851 10.432 12.883 9.18996L14.893 2.91658Z" fill="#FDDB5B"/>
</svg>
