<svg width="427" height="279" viewBox="0 0 427 279" fill="none" xmlns="http://www.w3.org/2000/svg">
<g filter="url(#filter0_d_33_268)">
<path d="M174 171.5C174 211.541 139.526 244 97 244C54.4741 244 20 211.541 20 171.5C20 131.459 54.4741 99 97 99C139.526 99 174 131.459 174 171.5Z" fill="#FF5753"/>
<path d="M260 90.5C260 137.72 221.72 176 174.5 176C127.28 176 89 137.72 89 90.5C89 43.2797 127.28 5 174.5 5C221.72 5 260 43.2797 260 90.5Z" fill="#FF5753"/>
<path d="M318 96.5C318 128.809 291.809 155 259.5 155C227.191 155 201 128.809 201 96.5C201 64.1913 227.191 38 259.5 38C291.809 38 318 64.1913 318 96.5Z" fill="#FF5753"/>
<path d="M407 162.5C407 207.511 370.511 244 325.5 244C280.489 244 244 207.511 244 162.5C244 117.489 280.489 81 325.5 81C370.511 81 407 117.489 407 162.5Z" fill="#FF5753"/>
<path d="M96 128H334V244H96V128Z" fill="#FF5753"/>
<path d="M138.3 186L163.9 116H178.3L203.9 186H190.3L184.7 169.8H157.4L151.7 186H138.3ZM160.9 159.8H181.2L171 130.7L160.9 159.8ZM212.917 186V116H238.817C244.417 116 249.051 116.933 252.717 118.8C256.384 120.667 259.117 123.233 260.917 126.5C262.717 129.767 263.617 133.433 263.617 137.5C263.617 141.367 262.751 144.933 261.017 148.2C259.284 151.4 256.584 154 252.917 156C249.251 157.933 244.551 158.9 238.817 158.9H225.717V186H212.917ZM225.717 148.5H238.017C242.484 148.5 245.684 147.533 247.617 145.6C249.617 143.6 250.617 140.9 250.617 137.5C250.617 134.033 249.617 131.333 247.617 129.4C245.684 127.4 242.484 126.4 238.017 126.4H225.717V148.5ZM273.659 186V116H286.459V186H273.659Z" fill="white"/>
</g>
<defs>
<filter id="filter0_d_33_268" x="0" y="0" width="427" height="279" filterUnits="userSpaceOnUse" color-interpolation-filters="sRGB">
<feFlood flood-opacity="0" result="BackgroundImageFix"/>
<feColorMatrix in="SourceAlpha" type="matrix" values="0 0 0 0 0 0 0 0 0 0 0 0 0 0 0 0 0 0 127 0" result="hardAlpha"/>
<feOffset dy="15"/>
<feGaussianBlur stdDeviation="10"/>
<feComposite in2="hardAlpha" operator="out"/>
<feColorMatrix type="matrix" values="0 0 0 0 0 0 0 0 0 0 0 0 0 0 0 0 0 0 0.1 0"/>
<feBlend mode="normal" in2="BackgroundImageFix" result="effect1_dropShadow_33_268"/>
<feBlend mode="normal" in="SourceGraphic" in2="effect1_dropShadow_33_268" result="shape"/>
</filter>
</defs>
</svg>
