<svg width="420" height="270" viewBox="0 0 420 270" fill="none" xmlns="http://www.w3.org/2000/svg">
<g filter="url(#filter0_d_144_56)">
<line x1="10" y1="155.5" x2="410" y2="155.5" stroke="#DDDDDD"/>
<line x1="10" y1="205.5" x2="410" y2="205.5" stroke="#DDDDDD"/>
<line x1="10" y1="105.5" x2="410" y2="105.5" stroke="#DDDDDD"/>
<line x1="10" y1="55.5" x2="410" y2="55.5" stroke="#DDDDDD"/>
<line x1="210.5" y1="6" x2="210.5" y2="256" stroke="#DDDDDD"/>
<line x1="160.5" y1="6" x2="160.5" y2="256" stroke="#DDDDDD"/>
<line x1="110.5" y1="6" x2="110.5" y2="256" stroke="#DDDDDD"/>
<line x1="60.5" y1="6" x2="60.5" y2="256" stroke="#DDDDDD"/>
<line x1="260.5" y1="6" x2="260.5" y2="256" stroke="#DDDDDD"/>
<line x1="310.5" y1="6" x2="310.5" y2="256" stroke="#DDDDDD"/>
<line x1="360.5" y1="6" x2="360.5" y2="256" stroke="#DDDDDD"/>
</g>
<g filter="url(#filter1_d_144_56)">
<path d="M57.6149 210.77C60.2494 212.088 63.453 211.02 64.7703 208.385C66.0876 205.751 65.0197 202.547 62.3851 201.23C59.7506 199.912 56.547 200.98 55.2297 203.615C53.9124 206.249 54.9803 209.453 57.6149 210.77ZM110.894 106.447C111.141 105.953 110.941 105.353 110.447 105.106C109.953 104.859 109.353 105.059 109.106 105.553L110.894 106.447ZM60.8944 206.447L110.894 106.447L109.106 105.553L59.1056 205.553L60.8944 206.447Z" fill="#FF5753"/>
<path d="M106.99 101.469C104.878 103.522 104.83 106.898 106.883 109.011C108.936 111.123 112.313 111.17 114.425 109.117C116.537 107.064 116.584 103.687 114.531 101.575C112.478 99.4634 109.102 99.4156 106.99 101.469ZM159.283 156.697C159.668 157.093 160.301 157.102 160.697 156.717C161.093 156.332 161.102 155.699 160.717 155.303L159.283 156.697ZM109.99 105.99L159.283 156.697L160.717 155.303L111.424 104.596L109.99 105.99Z" fill="#FF5753"/>
<path d="M157.577 160.751C160.201 162.089 163.413 161.047 164.751 158.423C166.089 155.799 165.047 152.587 162.423 151.249C159.799 149.911 156.587 150.953 155.249 153.577C153.911 156.201 154.953 159.413 157.577 160.751ZM211.891 56.4543C212.142 55.9623 211.946 55.3601 211.454 55.1092C210.962 54.8582 210.36 55.0537 210.109 55.5457L211.891 56.4543ZM160.891 156.454L211.891 56.4543L210.109 55.5457L159.109 155.546L160.891 156.454Z" fill="#FF5753"/>
<path d="M209.344 50.9303C206.544 51.8449 205.016 54.8562 205.93 57.6561C206.845 60.456 209.856 61.9843 212.656 61.0697C215.456 60.1551 216.984 57.1438 216.07 54.3439C215.155 51.544 212.144 50.0157 209.344 50.9303ZM259.049 206.311C259.221 206.836 259.786 207.122 260.311 206.951C260.836 206.779 261.122 206.214 260.951 205.689L259.049 206.311ZM210.049 56.3105L259.049 206.311L260.951 205.689L211.951 55.6895L210.049 56.3105Z" fill="#FF5753"/>
<path d="M257.634 210.78C260.274 212.087 263.473 211.006 264.78 208.366C266.087 205.726 265.006 202.527 262.366 201.22C259.726 199.913 256.527 200.994 255.22 203.634C253.913 206.274 254.994 209.473 257.634 210.78ZM310.896 105.444C311.141 104.949 310.939 104.349 310.444 104.104C309.949 103.859 309.349 104.061 309.104 104.556L310.896 105.444ZM260.896 206.444L310.896 105.444L309.104 104.556L259.104 205.556L260.896 206.444Z" fill="#FF5753"/>
<path d="M306.266 101.192C304.163 103.254 304.13 106.63 306.192 108.734C308.254 110.837 311.63 110.87 313.734 108.808C315.837 106.746 315.87 103.37 313.808 101.266C311.746 99.163 308.37 99.1295 306.266 101.192ZM356.266 152.192C354.163 154.254 354.13 157.63 356.192 159.734C358.254 161.837 361.63 161.87 363.734 159.808C365.837 157.746 365.87 154.37 363.808 152.266C361.746 150.163 358.37 150.13 356.266 152.192ZM309.286 105.7L359.286 156.7L360.714 155.3L310.714 104.3L309.286 105.7Z" fill="#FF5753"/>
</g>
<defs>
<filter id="filter0_d_144_56" x="0" y="0" width="420" height="270" filterUnits="userSpaceOnUse" color-interpolation-filters="sRGB">
<feFlood flood-opacity="0" result="BackgroundImageFix"/>
<feColorMatrix in="SourceAlpha" type="matrix" values="0 0 0 0 0 0 0 0 0 0 0 0 0 0 0 0 0 0 127 0" result="hardAlpha"/>
<feOffset dy="4"/>
<feGaussianBlur stdDeviation="5"/>
<feComposite in2="hardAlpha" operator="out"/>
<feColorMatrix type="matrix" values="0 0 0 0 0.866667 0 0 0 0 0.866667 0 0 0 0 0.866667 0 0 0 0.25 0"/>
<feBlend mode="normal" in2="BackgroundImageFix" result="effect1_dropShadow_144_56"/>
<feBlend mode="normal" in="SourceGraphic" in2="effect1_dropShadow_144_56" result="shape"/>
</filter>
<filter id="filter1_d_144_56" x="39.6655" y="38.665" width="340.668" height="190.669" filterUnits="userSpaceOnUse" color-interpolation-filters="sRGB">
<feFlood flood-opacity="0" result="BackgroundImageFix"/>
<feColorMatrix in="SourceAlpha" type="matrix" values="0 0 0 0 0 0 0 0 0 0 0 0 0 0 0 0 0 0 127 0" result="hardAlpha"/>
<feOffset dy="3"/>
<feGaussianBlur stdDeviation="7.5"/>
<feComposite in2="hardAlpha" operator="out"/>
<feColorMatrix type="matrix" values="0 0 0 0 1 0 0 0 0 0.341176 0 0 0 0 0.32549 0 0 0 0.5 0"/>
<feBlend mode="normal" in2="BackgroundImageFix" result="effect1_dropShadow_144_56"/>
<feBlend mode="normal" in="SourceGraphic" in2="effect1_dropShadow_144_56" result="shape"/>
</filter>
</defs>
</svg>
