<svg width="1440" height="491" viewBox="0 0 1440 491" fill="none" xmlns="http://www.w3.org/2000/svg">
<path d="M235 401C103.061 443.1 -4 489.5 -4 489.5V342.5C-4 342.5 14.8686 294.439 139 264C227.615 242.27 366 278.5 461 226C600.163 149.094 749.262 212.416 902.5 170C959.272 154.285 1022.56 104.961 1078.5 86.5C1151.56 62.3875 1227.68 63.6822 1301.5 42C1365.71 23.1396 1439.5 1 1439.5 1V106C1439.5 106 1363.86 129.437 1301.5 152C1217.73 182.31 1202.34 240.744 1119.5 273.5C996.472 322.147 962.232 334.749 831 351.5C664.086 372.806 410.5 345 235 401Z" fill="#4169E1" stroke="#4169E1"/>
</svg>
