<svg width="1440" height="491" viewBox="0 0 1440 491" fill="none" xmlns="http://www.w3.org/2000/svg" preserveAspectRatio="none">
<path d="M239 89.5C107.061 47.4001 0 1 0 1V148C0 148 18.8686 196.061 143 226.5C231.615 248.23 370 212 465 264.5C604.163 341.406 753.262 278.084 906.5 320.5C963.272 336.215 1026.56 385.539 1082.5 404C1155.56 428.113 1231.68 426.818 1305.5 448.5C1369.71 467.36 1443.5 489.5 1443.5 489.5V384.5C1443.5 384.5 1367.86 361.063 1305.5 338.5C1221.73 308.19 1206.34 249.756 1123.5 217C1000.47 168.353 966.232 155.751 835 139C668.086 117.694 414.5 145.5 239 89.5Z" fill="#4169E1" stroke="#4169E1"/>
</svg>
